# This file uses centimeters as units for non-parametric coordinates.

mtllib lamp.mtl
g default
v -7.500000 0.000000 7.500000
v -0.569306 0.000000 7.500000
v 0.569306 0.000000 7.500000
v 7.500000 0.000000 7.500000
v -7.500000 2.000000 7.500000
v -0.569306 2.000000 7.500000
v 0.569306 2.000000 7.500000
v 7.500000 2.000000 7.500000
v -7.500000 2.000000 0.520019
v -0.569306 2.000000 0.520019
v 0.569306 2.000000 0.520019
v 7.500000 2.000000 0.520019
v -7.500000 2.000000 -0.520019
v -0.569306 2.000000 -0.520019
v 0.569306 2.000000 -0.520019
v 7.500000 2.000000 -0.520019
v -7.500000 2.000000 -7.500000
v -0.569306 2.000000 -7.500000
v 0.569306 2.000000 -7.500000
v 7.500000 2.000000 -7.500000
v -7.500000 0.000000 -7.500000
v -0.569306 0.000000 -7.500000
v 0.569306 0.000000 -7.500000
v 7.500000 0.000000 -7.500000
v -7.500000 0.000000 -0.520019
v -0.569306 0.000000 -0.520019
v 0.569306 0.000000 -0.520019
v 7.500000 0.000000 -0.520019
v -7.500000 0.000000 0.520019
v -0.569306 0.000000 0.520019
v 0.569306 0.000000 0.520019
v 7.500000 0.000000 0.520019
v -0.569306 37.933445 0.520019
v 0.569306 37.933445 0.520019
v 0.569306 37.933445 -0.520019
v -0.569306 37.933445 -0.520019
v -10.751572 20.756115 7.995618
v -7.995617 20.756115 10.751574
v -9.050275 20.756115 10.541789
v -9.944371 20.756115 9.944372
v -10.541786 20.756115 9.050277
v -9.187433 39.130981 6.431480
v -8.977649 39.130981 7.486137
v -8.380233 39.130981 8.380234
v -7.486137 39.130981 8.977649
v -6.431479 39.130981 9.187433
v 10.751572 20.756107 7.995617
v 10.541788 20.756107 9.050276
v 9.944371 20.756107 9.944371
v 9.050276 20.756107 10.541788
v 7.995617 20.756107 10.751572
v 9.187433 39.130974 6.431479
v 6.431479 39.130974 9.187433
v 7.486137 39.130974 8.977649
v 8.380233 39.130974 8.380233
v 8.977649 39.130974 7.486137
v -7.486137 39.130981 -8.977649
v -8.380233 39.130981 -8.380233
v -8.977649 39.130981 -7.486136
v -9.187433 39.130981 -6.431478
v -6.431479 39.130981 -9.187433
v -10.751572 20.756115 -7.995617
v -10.541786 20.756115 -9.050277
v -9.944371 20.756115 -9.944372
v -9.050275 20.756115 -10.541787
v -7.995617 20.756115 -10.751572
v 8.977649 39.130974 -7.486137
v 8.380233 39.130974 -8.380233
v 7.486137 39.130974 -8.977649
v 6.431479 39.130974 -9.187433
v 9.187433 39.130974 -6.431479
v 10.751572 20.756107 -7.995618
v 7.995617 20.756107 -10.751572
v 9.050276 20.756107 -10.541787
v 9.944371 20.756107 -9.944372
v 10.541788 20.756107 -9.050277
v -7.567108 20.756115 10.175360
v -10.175360 20.756115 7.567109
v 7.567108 20.756115 10.175360
v 10.175360 20.756115 7.567109
v 10.175360 20.756115 -7.567108
v 7.567108 20.756115 -10.175359
v -7.567108 20.756115 -10.175359
v -10.175360 20.756115 -7.567108
v 6.266974 39.130981 8.503240
v -6.266974 39.130981 8.503242
v -8.503242 39.130981 6.266975
v -8.503242 39.130981 -6.266973
v -6.266974 39.130981 -8.503241
v 6.266974 39.130981 -8.503241
v 8.503242 39.130981 -6.266973
v 8.503242 39.130981 6.266974
vt 0.824261 0.008702
vt 0.824261 0.035227
vt 0.732345 0.035227
vt 0.732345 0.008702
vt 0.839361 0.008702
vt 0.839361 0.035227
vt 0.931278 0.008702
vt 0.931278 0.035227
vt 0.653679 0.500593
vt 0.666973 0.500593
vt 0.824261 0.127797
vt 0.732345 0.127797
vt 0.666973 0.041259
vt 0.839361 0.127797
vt 0.824261 0.141590
vt 0.732345 0.141590
vt 0.653679 0.041259
vt 0.931278 0.127797
vt 0.824261 0.234160
vt 0.732345 0.234160
vt 0.931278 0.141590
vt 0.839361 0.141590
vt 0.839361 0.234160
vt 0.931278 0.234160
vt 0.653677 0.513888
vt 0.639123 0.513887
vt 0.639124 0.500593
vt 0.957802 0.035227
vt 0.957802 0.127797
vt 0.824261 0.260684
vt 0.732345 0.260684
vt 0.705820 0.234160
vt 0.611274 0.500593
vt 0.839361 0.260684
vt 0.639124 0.041259
vt 0.931278 0.260684
vt 0.611274 0.041259
vt 0.705821 0.035227
vt 0.824261 0.353254
vt 0.732345 0.353254
vt 0.625829 0.041259
vt 0.839361 0.353254
vt 0.824261 0.367047
vt 0.732345 0.367047
vt 0.705820 0.127797
vt 0.931278 0.353254
vt 0.839361 0.367047
vt 0.824261 0.459617
vt 0.732344 0.459617
vt 0.931278 0.367047
vt 0.839361 0.459617
vt 0.931277 0.459617
vt 0.957802 0.141590
vt 0.957802 0.234160
vt 0.625829 0.500593
vt 0.705820 0.141590
vt 0.089041 0.534425
vt 0.313689 0.539663
vt 0.292811 0.734421
vt 0.071306 0.690944
vt 0.295619 0.240604
vt 0.072844 0.273232
vt 0.036520 0.119332
vt 0.251240 0.049497
vt 0.060870 0.742601
vt 0.282814 0.786168
vt 0.228676 0.975611
vt 0.016888 0.894973
vt 0.080648 0.325193
vt 0.303064 0.292525
vt 0.314835 0.487288
vt 0.090392 0.482082
vt 0.315361 0.500376
vt 0.090990 0.495183
vt 0.315362 0.513482
vt 0.090980 0.508289
vt 0.314789 0.526584
vt 0.090315 0.521376
vt 0.291144 0.747492
vt 0.069590 0.704011
vt 0.288935 0.760494
vt 0.067289 0.716997
vt 0.286142 0.773391
vt 0.064365 0.729865
vt 0.079611 0.312094
vt 0.302018 0.279449
vt 0.077976 0.299051
vt 0.300444 0.266421
vt 0.075704 0.286091
vt 0.298295 0.253467
vt 0.033318 0.106543
vt 0.247981 0.036750
vt 0.029572 0.093935
vt 0.244192 0.024171
vt 0.025241 0.081547
vt 0.239839 0.011800
vt 0.013045 0.907589
vt 0.224789 0.988201
vt 0.921969 0.740454
vt 0.956629 0.705794
vt 0.953991 0.719058
vt 0.946477 0.730302
vt 0.935233 0.737816
vt 0.631335 0.982799
vt 0.618071 0.980161
vt 0.606827 0.972648
vt 0.599313 0.961403
vt 0.596675 0.948139
vt 0.921969 0.470023
vt 0.935233 0.472662
vt 0.946477 0.480175
vt 0.953991 0.491419
vt 0.956629 0.504683
vt 0.631335 0.751711
vt 0.596675 0.786371
vt 0.599313 0.773107
vt 0.606827 0.761862
vt 0.618071 0.754349
vt 0.825125 0.961403
vt 0.817612 0.972648
vt 0.806367 0.980161
vt 0.793104 0.982799
vt 0.827764 0.948139
vt 0.720858 0.740454
vt 0.707594 0.737816
vt 0.696350 0.730302
vt 0.688836 0.719058
vt 0.686198 0.705794
vt 0.806367 0.754349
vt 0.817612 0.761862
vt 0.825125 0.773107
vt 0.827764 0.786371
vt 0.793104 0.751711
vt 0.720858 0.470023
vt 0.686198 0.504683
vt 0.688836 0.491419
vt 0.696350 0.480175
vt 0.707594 0.472662
vt 0.605280 0.946070
vt 0.633404 0.974195
vt 0.605280 0.788439
vt 0.633404 0.760315
vt 0.791035 0.760315
vt 0.819159 0.788439
vt 0.819159 0.946070
vt 0.791035 0.974195
vt 0.693445 0.700405
vt 0.726247 0.733208
vt 0.693445 0.510072
vt 0.726247 0.477270
vt 0.916580 0.477270
vt 0.949382 0.510072
vt 0.949382 0.700405
vt 0.916580 0.733208
vt 0.333399 0.283127
vt 0.293360 0.131450
vt 0.512389 0.056933
vt 0.560492 0.239608
vt 0.340237 0.322173
vt 0.568506 0.284963
vt 0.354780 0.479147
vt 0.586555 0.472802
vt 0.355305 0.518908
vt 0.587315 0.518886
vt 0.344646 0.676115
vt 0.574704 0.707785
vt 0.338617 0.715393
vt 0.567805 0.753544
vt 0.301937 0.868771
vt 0.523826 0.938481
vt 0.280039 0.094133
vt 0.497020 0.013421
vn 0.000000 0.000000 1.000000
vn 0.000000 0.000000 1.000000
vn 0.000000 0.000000 1.000000
vn 0.000000 0.000000 1.000000
vn 0.000000 0.000000 1.000000
vn 0.000000 0.000000 1.000000
vn 0.000000 0.000000 1.000000
vn 0.000000 0.000000 1.000000
vn 0.000000 1.000000 0.000000
vn 0.000000 1.000000 0.000000
vn 0.000000 1.000000 0.000000
vn 0.000000 1.000000 0.000000
vn 0.000000 1.000000 0.000000
vn 0.000000 1.000000 0.000000
vn 0.000000 1.000000 0.000000
vn 0.000000 1.000000 0.000000
vn 0.000000 1.000000 0.000000
vn 0.000000 1.000000 0.000000
vn 0.000000 1.000000 0.000000
vn 0.000000 1.000000 0.000000
vn 0.000000 1.000000 0.000000
vn 0.000000 1.000000 0.000000
vn 0.000000 1.000000 0.000000
vn 0.000000 1.000000 0.000000
vn 0.000000 1.000000 0.000000
vn 0.000000 1.000000 0.000000
vn 0.000000 1.000000 0.000000
vn 0.000000 1.000000 0.000000
vn 0.000000 0.000000 -1.000000
vn 0.000000 0.000000 -1.000000
vn 0.000000 0.000000 -1.000000
vn 0.000000 0.000000 -1.000000
vn 0.000000 0.000000 -1.000000
vn 0.000000 0.000000 -1.000000
vn 0.000000 0.000000 -1.000000
vn 0.000000 0.000000 -1.000000
vn 0.000000 -1.000000 0.000000
vn 0.000000 -1.000000 0.000000
vn 0.000000 -1.000000 0.000000
vn 0.000000 -1.000000 0.000000
vn 0.000000 -1.000000 0.000000
vn 0.000000 -1.000000 0.000000
vn 0.000000 -1.000000 0.000000
vn 0.000000 -1.000000 0.000000
vn 0.000000 -1.000000 0.000000
vn 0.000000 -1.000000 0.000000
vn 0.000000 -1.000000 0.000000
vn 0.000000 -1.000000 0.000000
vn 0.000000 -1.000000 0.000000
vn 0.000000 -1.000000 0.000000
vn 0.000000 -1.000000 0.000000
vn 0.000000 -1.000000 0.000000
vn 1.000000 0.000000 0.000000
vn 1.000000 0.000000 0.000000
vn 1.000000 0.000000 0.000000
vn 1.000000 0.000000 0.000000
vn 1.000000 0.000000 0.000000
vn 1.000000 0.000000 0.000000
vn 1.000000 0.000000 0.000000
vn 1.000000 0.000000 0.000000
vn -1.000000 0.000000 0.000000
vn -1.000000 0.000000 0.000000
vn -1.000000 0.000000 0.000000
vn -1.000000 0.000000 0.000000
vn -1.000000 0.000000 0.000000
vn -1.000000 0.000000 0.000000
vn -1.000000 0.000000 0.000000
vn -1.000000 0.000000 0.000000
vn 0.000000 0.000000 1.000000
vn 0.000000 0.000000 1.000000
vn 0.000000 0.000000 1.000000
vn 0.000000 0.000000 1.000000
vn 1.000000 0.000000 0.000000
vn 1.000000 0.000000 0.000000
vn 1.000000 0.000000 0.000000
vn 1.000000 0.000000 0.000000
vn 0.000000 0.000000 -1.000000
vn 0.000000 0.000000 -1.000000
vn 0.000000 0.000000 -1.000000
vn 0.000000 0.000000 -1.000000
vn -1.000000 0.000000 0.000000
vn -1.000000 0.000000 0.000000
vn -1.000000 0.000000 0.000000
vn -1.000000 0.000000 0.000000
vn -0.012344 0.085854 0.996231
vn -0.014768 0.086056 0.996181
vn 0.014769 0.086056 0.996181
vn 0.012344 0.085854 0.996231
vn -0.014769 0.086056 -0.996181
vn -0.012344 0.085854 -0.996231
vn 0.012344 0.085854 -0.996231
vn 0.014769 0.086056 -0.996181
vn 0.996231 0.085854 0.012344
vn 0.996181 0.086056 0.014768
vn 0.996181 0.086056 -0.014768
vn 0.996231 0.085854 -0.012344
vn -0.996231 0.085854 -0.012344
vn -0.996181 0.086056 -0.014769
vn -0.996181 0.086056 0.014769
vn -0.996231 0.085854 0.012344
vn -0.915984 0.110797 0.385612
vn -0.920362 0.110283 0.375195
vn -0.702038 0.119520 0.702038
vn -0.702038 0.119520 0.702038
vn -0.385612 0.110797 0.915984
vn -0.375195 0.110283 0.920362
vn 0.385612 0.110797 0.915984
vn 0.375195 0.110283 0.920362
vn 0.702038 0.119520 0.702038
vn 0.702038 0.119520 0.702038
vn 0.915984 0.110797 0.385612
vn 0.920362 0.110283 0.375195
vn -0.920362 0.110283 -0.375195
vn -0.915984 0.110797 -0.385612
vn -0.702038 0.119520 -0.702038
vn -0.702038 0.119520 -0.702038
vn -0.375195 0.110283 -0.920362
vn -0.385612 0.110797 -0.915984
vn 0.375195 0.110283 -0.920362
vn 0.385612 0.110797 -0.915984
vn 0.702038 0.119520 -0.702038
vn 0.702038 0.119520 -0.702038
vn 0.920362 0.110283 -0.375195
vn 0.915984 0.110797 -0.385612
vn 0.000000 -1.000000 0.000000
vn 0.000000 -1.000000 -0.000000
vn 0.000000 -1.000000 0.000000
vn 0.000000 1.000000 0.000000
vn 0.000000 1.000000 0.000000
vn 0.000000 1.000000 0.000000
vn 0.000000 -1.000000 0.000001
vn 0.000000 -1.000000 0.000000
vn 0.000000 -1.000000 0.000009
vn 0.000000 1.000000 0.000001
vn 0.000000 1.000000 0.000001
vn 0.000000 1.000000 0.000000
vn 0.000000 1.000000 0.000000
vn 0.000000 1.000000 0.000000
vn 0.000000 1.000000 0.000000
vn 0.000000 -1.000000 0.000001
vn 0.000000 -1.000000 0.000000
vn 0.000000 -1.000000 0.000009
vn 0.000000 1.000000 0.000000
vn 0.000000 1.000000 0.000000
vn 0.000000 1.000000 0.000000
vn 0.000000 -1.000000 -0.000001
vn 0.000000 -1.000000 -0.000001
vn 0.000000 -1.000000 0.000000
vn 0.000000 1.000000 -0.000001
vn 0.000000 1.000000 -0.000001
vn 0.000000 1.000000 -0.000001
vn 0.000000 1.000000 -0.000001
vn 0.000000 1.000000 0.000007
vn 0.000000 1.000000 0.000007
vn 0.000000 1.000000 0.000007
vn 0.000000 1.000000 0.000007
vn 0.000009 1.000000 0.000012
vn 0.000009 1.000000 0.000012
vn 0.000009 1.000000 0.000012
vn 0.000009 1.000000 0.000012
vn 0.000011 1.000000 0.000000
vn 0.000011 1.000000 0.000000
vn 0.000011 1.000000 0.000000
vn 0.000011 1.000000 0.000000
vn 0.000009 1.000000 -0.000009
vn 0.000009 1.000000 -0.000009
vn 0.000009 1.000000 -0.000009
vn 0.000009 1.000000 -0.000009
vn 0.000000 1.000000 -0.000007
vn 0.000000 1.000000 -0.000007
vn 0.000000 1.000000 -0.000007
vn 0.000000 1.000000 -0.000007
vn 0.000000 1.000000 -0.000001
vn 0.000000 1.000000 -0.000001
vn 0.000000 1.000000 -0.000001
vn 0.000000 1.000000 -0.000001
vn 0.000000 1.000000 0.000000
vn 0.000000 1.000000 0.000000
vn 0.000000 1.000000 0.000000
vn 0.000000 1.000000 0.000000
vn 0.000000 -1.000000 0.000001
vn 0.000000 -1.000000 0.000001
vn 0.000000 -1.000000 0.000001
vn 0.000000 -1.000000 0.000001
vn -0.000000 -1.000000 0.000006
vn -0.000000 -1.000000 0.000006
vn -0.000000 -1.000000 0.000006
vn -0.000000 -1.000000 0.000006
vn -0.000008 -1.000000 0.000008
vn -0.000008 -1.000000 0.000008
vn -0.000008 -1.000000 0.000008
vn -0.000008 -1.000000 0.000008
vn -0.000013 -1.000000 0.000000
vn -0.000013 -1.000000 0.000000
vn -0.000013 -1.000000 0.000000
vn -0.000013 -1.000000 0.000000
vn -0.000008 -1.000000 -0.000008
vn -0.000008 -1.000000 -0.000008
vn -0.000008 -1.000000 -0.000008
vn -0.000008 -1.000000 -0.000008
vn -0.000000 -1.000000 -0.000007
vn -0.000000 -1.000000 -0.000007
vn -0.000000 -1.000000 -0.000007
vn -0.000000 -1.000000 -0.000007
vn 0.000000 -1.000000 0.000001
vn 0.000000 -1.000000 0.000001
vn 0.000000 -1.000000 0.000001
vn 0.000000 -1.000000 0.000001
vn 0.000000 -1.000000 0.000000
vn 0.000000 -1.000000 0.000000
vn 0.000000 -1.000000 0.000000
vn 0.000000 -1.000000 0.000000
vn 0.000000 -0.090626 -0.995885
vn 0.000000 -0.090626 -0.995885
vn 0.000000 -0.090626 -0.995885
vn 0.000000 -0.090626 -0.995885
vn 0.702526 -0.113638 -0.702527
vn 0.702526 -0.113638 -0.702527
vn 0.702526 -0.113638 -0.702526
vn 0.702526 -0.113638 -0.702526
vn 0.995885 -0.090626 0.000000
vn 0.995885 -0.090626 0.000000
vn 0.995885 -0.090626 0.000000
vn 0.995885 -0.090626 0.000000
vn 0.702526 -0.113638 0.702526
vn 0.702526 -0.113638 0.702526
vn 0.702526 -0.113638 0.702526
vn 0.702526 -0.113638 0.702526
vn 0.000000 -0.090626 0.995885
vn 0.000000 -0.090626 0.995885
vn 0.000000 -0.090626 0.995885
vn 0.000000 -0.090626 0.995885
vn -0.702526 -0.113638 0.702526
vn -0.702526 -0.113638 0.702526
vn -0.702526 -0.113638 0.702526
vn -0.702526 -0.113638 0.702526
vn -0.995885 -0.090626 0.000000
vn -0.995885 -0.090626 0.000000
vn -0.995885 -0.090626 0.000000
vn -0.995885 -0.090626 0.000000
vn -0.702526 -0.113638 -0.702527
vn -0.702526 -0.113638 -0.702527
vn -0.702526 -0.113638 -0.702527
vn -0.702526 -0.113638 -0.702527
vn 0.000000 1.000000 0.000001
vn 0.000000 1.000000 0.000000
vn 0.000000 1.000000 0.000000
vn 0.000000 1.000000 0.000000
vn 0.000000 1.000000 0.000000
vn 0.000000 1.000000 0.000000
vn 0.000000 1.000000 0.000000
vn 0.000000 1.000000 0.000000
vn 0.000000 -1.000000 0.000000
vn 0.000000 -1.000000 0.000000
vn 0.000000 -1.000000 -0.000002
vn 0.000000 -1.000000 -0.000009
vn 0.000000 -1.000000 0.000000
vn 0.000000 -1.000000 0.000000
vn 0.000000 -1.000000 -0.000001
vn 0.000000 -1.000000 -0.000009
s 1
g lamp:Lamp
usemtl initialShadingGroup
f 2/1/1 6/2/2 5/3/3 1/4/4
f 3/5/5 7/6/6 6/2/2 2/1/1
f 4/7/7 8/8/8 7/6/6 3/5/5
s 2
f 5/3/9 6/2/10 10/11/11 9/12/12
f 6/2/10 7/6/13 11/14/14 10/11/11
f 7/6/13 8/8/15 12/18/16 11/14/14
f 9/12/12 10/11/11 14/15/17 13/16/18
s off
f 33/25/19 34/26/20 35/27/21 36/9/22
s 2
f 11/14/14 12/18/16 16/21/23 15/22/24
f 13/16/18 14/15/17 18/19/25 17/20/26
f 14/15/17 15/22/24 19/23/27 18/19/25
f 15/22/24 16/21/23 20/24/28 19/23/27
s 3
f 18/19/29 22/30/30 21/31/31 17/20/32
f 19/23/33 23/34/34 22/30/30 18/19/29
f 20/24/35 24/36/36 23/34/34 19/23/33
s 4
f 21/31/37 22/30/38 26/39/39 25/40/40
f 22/30/38 23/34/41 27/42/42 26/39/39
f 23/34/41 24/36/43 28/46/44 27/42/42
f 25/40/40 26/39/39 30/43/45 29/44/46
f 26/39/39 27/42/42 31/47/47 30/43/45
f 27/42/42 28/46/44 32/50/48 31/47/47
f 29/44/46 30/43/45 2/48/49 1/49/50
f 30/43/45 31/47/47 3/51/51 2/48/49
f 31/47/47 32/50/48 4/52/52 3/51/51
s 5
f 28/53/53 24/54/54 20/24/55 16/21/56
f 32/29/57 28/53/53 16/21/56 12/18/58
f 4/28/59 32/29/57 12/18/58 8/8/60
s 6
f 25/56/61 13/16/62 17/20/63 21/32/64
f 29/45/65 9/12/66 13/16/62 25/56/61
f 1/38/67 5/3/68 9/12/66 29/45/65
s off
f 10/37/69 11/41/70 34/55/71 33/33/72
f 11/41/73 15/35/74 35/27/75 34/55/76
f 15/35/77 14/17/78 36/9/79 35/27/80
f 14/17/81 10/13/82 33/10/83 36/9/84
s 7
f 46/57/85 38/58/86 51/59/87 53/60/88
f 66/61/89 61/62/90 70/63/91 73/64/92
f 52/65/93 47/66/94 72/67/95 71/68/96
f 60/69/97 62/70/98 37/71/99 42/72/100
f 37/71/99 41/73/101 43/74/102 42/72/100
f 41/73/101 40/75/103 44/76/104 43/74/102
f 40/75/103 39/77/105 45/78/106 44/76/104
f 39/77/105 38/58/86 46/57/85 45/78/106
f 51/59/87 50/79/107 54/80/108 53/60/88
f 50/79/107 49/81/109 55/82/110 54/80/108
f 49/81/109 48/83/111 56/84/112 55/82/110
f 48/83/111 47/66/94 52/65/93 56/84/112
f 60/69/97 59/85/113 63/86/114 62/70/98
f 59/85/113 58/87/115 64/88/116 63/86/114
f 58/87/115 57/89/117 65/90/118 64/88/116
f 57/89/117 61/62/90 66/61/89 65/90/118
f 70/63/91 69/91/119 74/92/120 73/64/92
f 69/91/119 68/93/121 75/94/122 74/92/120
f 68/93/121 67/95/123 76/96/124 75/94/122
f 67/97/123 71/68/96 72/67/95 76/98/124
s 11
f 37/99/125 40/102/126 41/103/127
s 12
f 46/108/128 44/106/129 45/107/130
s 13
f 51/113/131 49/111/132 50/112/133
s 14
f 55/117/134 53/115/135 54/116/136
s 15
f 57/119/137 58/120/138 61/123/139
s 16
f 66/128/140 64/126/141 65/127/142
s 17
f 67/129/143 68/130/144 71/133/145
s 18
f 72/134/146 75/137/147 76/138/148
s off
f 42/104/149 46/108/150 86/139/151 87/140/152
f 46/108/153 53/115/154 85/141/155 86/139/156
f 53/115/157 52/114/158 92/142/159 85/141/160
f 52/114/161 71/133/162 91/143/163 92/142/164
f 71/133/165 70/132/166 90/144/167 91/143/168
f 70/132/169 61/123/170 89/145/171 90/144/172
f 61/123/173 60/122/174 88/146/175 89/145/176
f 60/122/177 42/104/178 87/140/179 88/146/180
f 62/124/181 66/128/182 83/147/183 84/148/184
f 66/128/185 73/135/186 82/149/187 83/147/188
f 73/135/189 72/134/190 81/150/191 82/149/192
f 72/134/193 47/109/194 80/151/195 81/150/196
f 47/109/197 51/113/198 79/152/199 80/151/200
f 51/113/201 38/100/202 77/153/203 79/152/204
f 38/100/205 37/99/206 78/154/207 77/153/208
f 37/99/209 62/124/210 84/148/211 78/154/212
f 86/155/213 85/156/214 79/157/215 77/158/216
f 87/159/217 86/155/218 77/158/219 78/160/220
f 88/161/221 87/159/222 78/160/223 84/162/224
f 89/163/225 88/161/226 84/162/227 83/164/228
f 90/165/229 89/163/230 83/164/231 82/166/232
f 91/167/233 90/165/234 82/166/235 81/168/236
f 92/169/237 91/167/238 81/168/239 80/170/240
f 85/156/241 92/171/242 80/172/243 79/157/244
s 14
f 52/114/245 53/115/135 55/117/134
f 52/114/245 55/117/134 56/118/246
s 17
f 71/133/145 68/130/144 70/132/247
f 70/132/247 68/130/144 69/131/248
s 15
f 61/123/139 58/120/138 60/122/249
f 60/122/249 58/120/138 59/121/250
s 12
f 42/104/251 43/105/252 44/106/129
f 42/104/251 44/106/129 46/108/128
s 13
f 47/109/253 48/110/254 49/111/132
f 47/109/253 49/111/132 51/113/131
s 18
f 75/137/147 73/135/255 74/136/256
f 72/134/146 73/135/255 75/137/147
s 16
f 62/124/257 63/125/258 64/126/141
f 62/124/257 64/126/141 66/128/140
s 11
f 40/102/126 38/100/259 39/101/260
f 37/99/125 38/100/259 40/102/126
