# This file uses centimeters as units for non-parametric coordinates.

mtllib photoFrame.mtl
g default
v -0.302483 -0.199957 0.002445
v 0.302483 -0.199957 0.002445
v -0.302483 0.199957 0.002445
v 0.302483 0.199957 0.002445
v -0.302483 0.199957 -0.016496
v 0.302483 0.199957 -0.016496
v -0.302483 -0.199957 -0.016496
v 0.302483 -0.199957 -0.016496
v -0.268999 -0.172943 0.016496
v 0.268999 -0.172943 0.016496
v 0.268999 0.172943 0.016496
v -0.268999 0.172943 0.016496
v -0.295207 0.192592 0.009563
v 0.295207 0.192592 0.009563
v 0.295207 -0.192591 0.009563
v -0.295207 -0.192591 0.009563
v -0.286627 0.185517 0.013490
v 0.286627 0.185517 0.013490
v 0.286627 -0.185517 0.013490
v -0.286627 -0.185517 0.013490
v -0.263599 -0.169471 0.016496
v 0.263599 -0.169471 0.016496
v 0.263599 0.169471 0.016496
v -0.263599 0.169471 0.016496
v -0.263599 -0.169471 -0.003449
v 0.263599 -0.169471 -0.003449
v 0.263599 0.169471 -0.003449
v -0.263599 0.169471 -0.003449
vt 0.188993 0.563055
vt 0.811007 0.563054
vt 0.811007 0.962955
vt 0.188993 0.962955
vt 0.143116 0.504170
vt 0.856884 0.504170
vt 0.856884 0.526518
vt 0.143116 0.526518
vt 0.143116 0.010568
vt 0.856884 0.010568
vt 0.856884 0.032916
vt 0.143116 0.032916
vt 0.856698 0.032624
vt 0.879045 0.032624
vt 0.879046 0.504462
vt 0.856698 0.504462
vt 0.120954 0.032624
vt 0.143301 0.032623
vt 0.143302 0.504462
vt 0.120954 0.504462
vt 0.848300 0.041314
vt 0.151700 0.041314
vt 0.848300 0.495772
vt 0.151700 0.495772
vt 0.161824 0.487424
vt 0.838176 0.487424
vt 0.838176 0.049661
vt 0.161824 0.049661
vt 0.182622 0.472589
vt 0.817378 0.472589
vt 0.817378 0.064496
vt 0.182622 0.064496
vt 0.811007 0.068592
vt 0.188993 0.068592
vt 0.811007 0.468493
vt 0.188993 0.468493
vt 0.188993 0.539522
vt 0.811007 0.539522
vt 0.834540 0.563054
vt 0.834540 0.962955
vt 0.811007 0.986488
vt 0.188993 0.986488
vt 0.165460 0.962955
vt 0.165460 0.563054
vn 0.000000 0.000000 1.000000
vn 0.000000 0.000000 1.000000
vn 0.000000 0.000000 1.000000
vn 0.000000 0.000000 1.000000
vn 0.000000 0.982376 0.186915
vn 0.000000 0.982376 0.186915
vn 0.000000 1.000000 0.000000
vn 0.000000 1.000000 0.000000
vn 0.000000 -1.000000 0.000000
vn 0.000000 -1.000000 0.000000
vn 0.000000 -0.982376 0.186915
vn 0.000000 -0.982376 0.186915
vn 0.983219 0.000000 0.182430
vn 1.000000 0.000000 0.000000
vn 1.000000 0.000000 0.000000
vn 0.983219 0.000000 0.182430
vn -1.000000 0.000000 0.000000
vn -0.983219 0.000000 0.182430
vn -0.983219 0.000000 0.182430
vn -1.000000 0.000000 0.000000
vn 0.000000 -0.982376 0.186915
vn 0.000000 -0.982376 0.186915
vn 0.000000 -0.654620 0.755958
vn 0.000000 -0.654620 0.755958
vn 0.983219 0.000000 0.182430
vn 0.983219 0.000000 0.182430
vn 0.629220 0.000000 0.777227
vn 0.629220 0.000000 0.777227
vn 0.000000 0.982376 0.186915
vn 0.000000 0.982376 0.186915
vn 0.000000 0.654620 0.755958
vn 0.000000 0.654620 0.755958
vn -0.983219 0.000000 0.182430
vn -0.983219 0.000000 0.182430
vn -0.629220 0.000000 0.777227
vn -0.629220 0.000000 0.777227
vn 0.000000 0.654620 0.755958
vn 0.000000 0.654620 0.755958
vn 0.000000 0.415602 0.909547
vn 0.000000 0.415602 0.909547
vn 0.629220 0.000000 0.777227
vn 0.629220 0.000000 0.777227
vn 0.310231 0.000000 0.950661
vn 0.310231 0.000000 0.950661
vn 0.000000 -0.654620 0.755958
vn 0.000000 -0.654620 0.755958
vn 0.000000 -0.415602 0.909547
vn 0.000000 -0.415602 0.909547
vn -0.629220 0.000000 0.777227
vn -0.629220 0.000000 0.777227
vn -0.310231 0.000000 0.950661
vn -0.310231 0.000000 0.950661
vn 0.000000 0.415602 0.909547
vn 0.000000 0.415602 0.909547
vn 0.000000 0.232493 0.972598
vn 0.000000 0.232493 0.972598
vn 0.310231 0.000000 0.950661
vn 0.310231 0.000000 0.950661
vn 0.168083 0.000000 0.985773
vn 0.168083 0.000000 0.985773
vn 0.000000 -0.415602 0.909547
vn 0.000000 -0.415602 0.909547
vn 0.000000 -0.232493 0.972598
vn 0.000000 -0.232493 0.972598
vn -0.310231 0.000000 0.950661
vn -0.310231 0.000000 0.950661
vn -0.168083 0.000000 0.985773
vn -0.168083 0.000000 0.985773
vn 0.000000 0.000000 1.000000
vn 0.000000 0.000000 1.000000
vn 0.000000 0.000000 1.000000
vn 0.000000 0.000000 1.000000
vn 0.000000 0.000000 1.000000
vn 0.000000 0.000000 1.000000
vn 0.000000 0.000000 1.000000
vn 0.000000 0.000000 1.000000
vn 0.000000 0.000000 1.000000
vn 0.000000 0.000000 1.000000
vn 0.000000 0.000000 1.000000
vn 0.000000 0.000000 1.000000
vn 0.000000 0.000000 1.000000
vn 0.000000 0.000000 1.000000
vn 0.000000 0.000000 1.000000
vn 0.000000 0.000000 1.000000
vn 0.000000 1.000000 0.000000
vn 0.000000 1.000000 0.000000
vn 0.000000 1.000000 0.000000
vn 0.000000 1.000000 0.000000
vn -1.000000 0.000000 0.000000
vn -1.000000 0.000000 0.000000
vn -1.000000 0.000000 0.000000
vn -1.000000 0.000000 0.000000
vn 0.000000 -1.000000 0.000000
vn 0.000000 -1.000000 0.000000
vn 0.000000 -1.000000 0.000000
vn 0.000000 -1.000000 0.000000
vn 1.000000 0.000000 0.000000
vn 1.000000 0.000000 0.000000
vn 1.000000 0.000000 0.000000
vn 1.000000 0.000000 0.000000
s off
g photoFrame:pCube1
usemtl photoFrame:initialShadingGroup
f 25/1/1 26/2/2 27/3/3 28/4/4
f 3/5/5 4/6/6 6/7/7 5/8/8
f 7/9/9 8/10/10 2/11/11 1/12/12
f 2/13/13 8/14/14 6/15/15 4/16/16
f 7/17/17 1/18/18 3/19/19 5/20/20
f 1/12/21 2/11/22 15/21/23 16/22/24
f 2/13/25 4/16/26 14/23/27 15/21/28
f 4/6/29 3/5/30 13/24/31 14/23/32
f 3/19/33 1/18/34 16/22/35 13/24/36
f 14/23/37 13/24/38 17/25/39 18/26/40
f 15/21/41 14/23/42 18/26/43 19/27/44
f 16/22/45 15/21/46 19/27/47 20/28/48
f 13/24/49 16/22/50 20/28/51 17/25/52
f 18/26/53 17/25/54 12/29/55 11/30/56
f 19/27/57 18/26/58 11/30/59 10/31/60
f 20/28/61 19/27/62 10/31/63 9/32/64
f 17/25/65 20/28/66 9/32/67 12/29/68
f 9/32/69 10/31/70 22/33/71 21/34/72
f 10/31/73 11/30/74 23/35/75 22/33/76
f 11/30/77 12/29/78 24/36/79 23/35/80
f 12/29/81 9/32/82 21/34/83 24/36/84
f 21/37/85 22/38/86 26/2/87 25/1/88
f 22/39/89 23/40/90 27/3/91 26/2/92
f 23/41/93 24/42/94 28/4/95 27/3/96
f 24/43/97 21/44/98 25/1/99 28/4/100
