# This file uses centimeters as units for non-parametric coordinates.

mtllib desk.mtl
g default
v 0.819638 0.755730 -0.476664
v 0.819638 0.706746 -0.476664
v 0.770906 0.755730 -0.476664
v 0.770906 0.706746 -0.476664
v 0.819638 0.000000 -0.476664
v 0.770906 0.000000 -0.476664
v 0.770906 0.755730 -0.380948
v 0.819638 0.755730 -0.380948
v 0.819638 0.706746 -0.380948
v 0.819638 0.000000 -0.380948
v 0.770906 0.000000 -0.380948
v 0.770906 0.706746 -0.380948
v 0.770906 0.755730 0.380948
v 0.770906 0.755730 0.476664
v 0.819638 0.755730 0.476664
v 0.819638 0.755730 0.380948
v 0.819638 0.706746 0.380948
v 0.819638 0.706746 0.476664
v 0.770906 0.706746 0.476664
v 0.770906 0.706746 0.380948
v 0.819638 0.000000 0.476664
v 0.819638 0.000000 0.380948
v 0.770906 0.000000 0.380948
v 0.770906 0.000000 0.476664
v 0.770906 0.628756 0.476664
v 0.819638 0.628756 0.476664
v 0.819638 0.628756 0.380948
v 0.819638 0.628756 -0.380948
v 0.819638 0.628756 -0.476664
v 0.770906 0.628756 -0.476664
v 0.770906 0.628756 -0.380948
v 0.770906 0.628756 0.380948
v -0.819638 0.755730 -0.476664
v -0.819638 0.755730 -0.380948
v -0.819638 0.706746 -0.380948
v -0.819638 0.706746 -0.476664
v -0.770906 0.755730 -0.476664
v -0.770906 0.755730 -0.380948
v -0.770906 0.706746 -0.476664
v -0.819638 0.000000 -0.476664
v -0.819638 0.000000 -0.380948
v -0.770906 0.000000 -0.380948
v -0.770906 0.000000 -0.476664
v -0.819638 0.628756 -0.380948
v -0.819638 0.628756 -0.476664
v -0.770906 0.706746 -0.380948
v -0.770906 0.628756 -0.476664
v -0.770906 0.628756 -0.380948
v -0.770906 0.755730 0.380948
v -0.819638 0.755730 0.380948
v -0.819638 0.706746 0.380948
v -0.819638 0.628756 0.380948
v -0.819638 0.000000 0.380948
v -0.770906 0.000000 0.380948
v -0.819638 0.755730 0.476664
v -0.819638 0.706746 0.476664
v -0.770906 0.755730 0.476664
v -0.770906 0.706746 0.476664
v -0.819638 0.000000 0.476664
v -0.770906 0.000000 0.476664
v -0.819638 0.628756 0.476664
v -0.770906 0.706746 0.380948
v -0.770906 0.628756 0.380948
v -0.770906 0.628756 0.476664
vt 0.703813 0.843927
vt 0.703813 0.825636
vt 0.713174 0.825636
vt 0.713174 0.843928
vt 0.694500 0.843927
vt 0.694500 0.825636
vt 0.703813 0.853289
vt 0.694500 0.853289
vt 0.848237 0.843927
vt 0.848237 0.825636
vt 0.857550 0.825636
vt 0.857550 0.843927
vt 0.728079 0.825636
vt 0.728079 0.843927
vt 0.992612 0.825635
vt 0.992612 0.843927
vt 0.977708 0.843927
vt 0.977708 0.825635
vt 0.703813 0.868193
vt 0.694500 0.868193
vt 0.694500 0.680034
vt 0.703813 0.680034
vt 0.713174 0.680034
vt 0.728078 0.680034
vt 0.848237 0.680034
vt 0.857549 0.680034
vt 0.703813 0.661742
vt 0.713174 0.661742
vt 0.694500 0.661742
vt 0.703813 0.652381
vt 0.694500 0.652381
vt 0.848237 0.661742
vt 0.857549 0.661742
vt 0.728078 0.661742
vt 0.992612 0.680033
vt 0.977708 0.680033
vt 0.977708 0.661742
vt 0.992612 0.661741
vt 0.694500 0.637477
vt 0.703813 0.637477
vt 0.694500 0.517318
vt 0.703813 0.517318
vt 0.703813 0.988351
vt 0.694500 0.988351
vt 0.694500 0.871580
vt 0.694500 0.886485
vt 0.544637 0.047361
vt 0.544641 0.192963
vt 0.694500 0.634089
vt 0.694500 0.619185
vt 0.703813 0.843927
vt 0.703813 0.825636
vt 0.713174 0.825636
vt 0.713174 0.843928
vt 0.694500 0.843927
vt 0.694500 0.825636
vt 0.703813 0.853289
vt 0.694500 0.853289
vt 0.848237 0.843927
vt 0.848237 0.825636
vt 0.857550 0.825636
vt 0.857550 0.843927
vt 0.728079 0.825636
vt 0.728079 0.843927
vt 0.992612 0.825635
vt 0.992612 0.843927
vt 0.977708 0.843927
vt 0.977708 0.825635
vt 0.703813 0.868193
vt 0.694500 0.868193
vt 0.694500 0.680034
vt 0.703813 0.680034
vt 0.713174 0.680034
vt 0.728078 0.680034
vt 0.848237 0.680034
vt 0.857549 0.680034
vt 0.703813 0.661742
vt 0.713174 0.661742
vt 0.694500 0.661742
vt 0.703813 0.652381
vt 0.694500 0.652381
vt 0.848237 0.661742
vt 0.857549 0.661742
vt 0.728078 0.661742
vt 0.992612 0.680033
vt 0.977708 0.680033
vt 0.977708 0.661742
vt 0.992612 0.661741
vt 0.694500 0.637477
vt 0.703813 0.637477
vt 0.694500 0.517318
vt 0.703813 0.517318
vt 0.703813 0.988351
vt 0.694500 0.988351
vt 0.694500 0.871580
vt 0.694500 0.886485
vt 0.544637 0.047361
vt 0.544641 0.192963
vt 0.694500 0.634089
vt 0.694500 0.619185
vn 1.000000 0.000000 0.000000
vn 1.000000 0.000000 0.000000
vn 1.000000 0.000000 0.000000
vn 1.000000 0.000000 0.000000
vn 0.000000 1.000000 0.000000
vn 0.000000 1.000000 0.000000
vn 0.000000 1.000000 0.000000
vn 0.000000 1.000000 0.000000
vn 0.000000 0.000000 -1.000000
vn 0.000000 0.000000 -1.000000
vn 0.000000 0.000000 -1.000000
vn 0.000000 0.000000 -1.000000
vn 0.000000 -1.000000 0.000000
vn 0.000000 -1.000000 0.000000
vn 0.000000 -1.000000 0.000000
vn 0.000000 -1.000000 0.000000
vn 1.000000 0.000000 0.000000
vn 1.000000 0.000000 0.000000
vn 1.000000 0.000000 0.000000
vn 1.000000 0.000000 0.000000
vn -1.000000 0.000000 0.000000
vn -1.000000 0.000000 0.000000
vn -1.000000 0.000000 0.000000
vn -1.000000 0.000000 0.000000
vn 0.000000 0.000000 -1.000000
vn 0.000000 0.000000 -1.000000
vn 0.000000 0.000000 -1.000000
vn 0.000000 0.000000 -1.000000
vn 0.000000 1.000000 0.000000
vn 0.000000 1.000000 0.000000
vn 0.000000 1.000000 0.000000
vn 0.000000 1.000000 0.000000
vn 1.000000 0.000000 0.000000
vn 1.000000 0.000000 0.000000
vn 1.000000 0.000000 0.000000
vn 1.000000 0.000000 0.000000
vn 1.000000 0.000000 0.000000
vn 1.000000 0.000000 0.000000
vn 1.000000 0.000000 0.000000
vn 1.000000 0.000000 0.000000
vn 0.000000 -1.000000 0.000000
vn 0.000000 -1.000000 0.000000
vn 0.000000 -1.000000 0.000000
vn 0.000000 -1.000000 0.000000
vn 1.000000 0.000000 0.000000
vn 1.000000 0.000000 0.000000
vn 1.000000 0.000000 0.000000
vn 1.000000 0.000000 0.000000
vn 0.000000 1.000000 0.000000
vn 0.000000 1.000000 0.000000
vn 0.000000 1.000000 0.000000
vn 0.000000 1.000000 0.000000
vn 0.000000 0.000000 1.000000
vn 0.000000 0.000000 1.000000
vn 0.000000 0.000000 1.000000
vn 0.000000 0.000000 1.000000
vn 0.000000 -1.000000 0.000000
vn 0.000000 -1.000000 0.000000
vn 0.000000 -1.000000 0.000000
vn 0.000000 -1.000000 0.000000
vn 1.000000 0.000000 0.000000
vn 1.000000 0.000000 0.000000
vn 1.000000 0.000000 0.000000
vn 1.000000 0.000000 0.000000
vn -1.000000 0.000000 0.000000
vn -1.000000 0.000000 0.000000
vn -1.000000 0.000000 0.000000
vn -1.000000 0.000000 0.000000
vn 0.000000 0.000000 1.000000
vn 0.000000 0.000000 1.000000
vn 0.000000 0.000000 1.000000
vn 0.000000 0.000000 1.000000
vn 0.000000 0.000000 1.000000
vn 0.000000 0.000000 1.000000
vn 0.000000 0.000000 1.000000
vn 0.000000 0.000000 1.000000
vn 1.000000 0.000000 0.000000
vn 1.000000 0.000000 0.000000
vn 1.000000 0.000000 0.000000
vn 1.000000 0.000000 0.000000
vn 1.000000 0.000000 0.000000
vn 1.000000 0.000000 0.000000
vn 1.000000 0.000000 0.000000
vn 1.000000 0.000000 0.000000
vn 1.000000 0.000000 0.000000
vn 1.000000 0.000000 0.000000
vn 1.000000 0.000000 0.000000
vn 1.000000 0.000000 0.000000
vn 0.000000 0.000000 -1.000000
vn 0.000000 0.000000 -1.000000
vn 0.000000 0.000000 -1.000000
vn 0.000000 0.000000 -1.000000
vn -1.000000 0.000000 0.000000
vn -1.000000 0.000000 0.000000
vn -1.000000 0.000000 0.000000
vn -1.000000 0.000000 0.000000
vn -1.000000 0.000000 0.000000
vn -1.000000 0.000000 0.000000
vn -1.000000 0.000000 0.000000
vn -1.000000 0.000000 0.000000
vn -1.000000 0.000000 0.000000
vn -1.000000 0.000000 0.000000
vn -1.000000 0.000000 0.000000
vn -1.000000 0.000000 0.000000
vn 0.000000 -1.000000 0.000000
vn 0.000000 -1.000000 0.000000
vn 0.000000 -1.000000 0.000000
vn 0.000000 -1.000000 0.000000
vn -1.000000 0.000000 0.000000
vn -1.000000 0.000000 0.000000
vn -1.000000 0.000000 0.000000
vn -1.000000 0.000000 0.000000
vn 0.000000 1.000000 0.000000
vn 0.000000 1.000000 0.000000
vn 0.000000 1.000000 0.000000
vn 0.000000 1.000000 0.000000
vn 0.000000 0.000000 -1.000000
vn 0.000000 0.000000 -1.000000
vn 0.000000 0.000000 -1.000000
vn 0.000000 0.000000 -1.000000
vn 0.000000 -1.000000 0.000000
vn 0.000000 -1.000000 0.000000
vn 0.000000 -1.000000 0.000000
vn 0.000000 -1.000000 0.000000
vn -1.000000 0.000000 0.000000
vn -1.000000 0.000000 0.000000
vn -1.000000 0.000000 0.000000
vn -1.000000 0.000000 0.000000
vn 1.000000 0.000000 0.000000
vn 1.000000 0.000000 0.000000
vn 1.000000 0.000000 0.000000
vn 1.000000 0.000000 0.000000
vn 0.000000 0.000000 -1.000000
vn 0.000000 0.000000 -1.000000
vn 0.000000 0.000000 -1.000000
vn 0.000000 0.000000 -1.000000
vn 0.000000 1.000000 0.000000
vn 0.000000 1.000000 0.000000
vn 0.000000 1.000000 0.000000
vn 0.000000 1.000000 0.000000
vn -1.000000 0.000000 0.000000
vn -1.000000 0.000000 0.000000
vn -1.000000 0.000000 0.000000
vn -1.000000 0.000000 0.000000
vn -1.000000 0.000000 0.000000
vn -1.000000 0.000000 0.000000
vn -1.000000 0.000000 0.000000
vn -1.000000 0.000000 0.000000
vn 0.000000 -1.000000 0.000000
vn 0.000000 -1.000000 0.000000
vn 0.000000 -1.000000 0.000000
vn 0.000000 -1.000000 0.000000
vn -1.000000 0.000000 0.000000
vn -1.000000 0.000000 0.000000
vn -1.000000 0.000000 0.000000
vn -1.000000 0.000000 0.000000
vn 0.000000 1.000000 0.000000
vn 0.000000 1.000000 0.000000
vn 0.000000 1.000000 0.000000
vn 0.000000 1.000000 0.000000
vn 0.000000 0.000000 1.000000
vn 0.000000 0.000000 1.000000
vn 0.000000 0.000000 1.000000
vn 0.000000 0.000000 1.000000
vn 0.000000 -1.000000 0.000000
vn 0.000000 -1.000000 0.000000
vn 0.000000 -1.000000 0.000000
vn 0.000000 -1.000000 0.000000
vn -1.000000 0.000000 0.000000
vn -1.000000 0.000000 0.000000
vn -1.000000 0.000000 0.000000
vn -1.000000 0.000000 0.000000
vn 1.000000 0.000000 0.000000
vn 1.000000 0.000000 0.000000
vn 1.000000 0.000000 0.000000
vn 1.000000 0.000000 0.000000
vn 0.000000 0.000000 1.000000
vn 0.000000 0.000000 1.000000
vn 0.000000 0.000000 1.000000
vn 0.000000 0.000000 1.000000
vn 0.000000 0.000000 1.000000
vn 0.000000 0.000000 1.000000
vn 0.000000 0.000000 1.000000
vn 0.000000 0.000000 1.000000
vn -1.000000 0.000000 0.000000
vn -1.000000 0.000000 0.000000
vn -1.000000 0.000000 0.000000
vn -1.000000 0.000000 0.000000
vn -1.000000 0.000000 0.000000
vn -1.000000 0.000000 0.000000
vn -1.000000 0.000000 0.000000
vn -1.000000 0.000000 0.000000
vn -1.000000 0.000000 0.000000
vn -1.000000 0.000000 0.000000
vn -1.000000 0.000000 0.000000
vn -1.000000 0.000000 0.000000
vn 0.000000 0.000000 -1.000000
vn 0.000000 0.000000 -1.000000
vn 0.000000 0.000000 -1.000000
vn 0.000000 0.000000 -1.000000
vn 1.000000 0.000000 0.000000
vn 1.000000 0.000000 0.000000
vn 1.000000 0.000000 0.000000
vn 1.000000 0.000000 0.000000
vn 1.000000 0.000000 0.000000
vn 1.000000 0.000000 0.000000
vn 1.000000 0.000000 0.000000
vn 1.000000 0.000000 0.000000
vn 1.000000 0.000000 0.000000
vn 1.000000 0.000000 0.000000
vn 1.000000 0.000000 0.000000
vn 1.000000 0.000000 0.000000
vn 0.000000 1.000000 0.000000
vn 0.000000 1.000000 0.000000
vn 0.000000 1.000000 0.000000
vn 0.000000 1.000000 0.000000
vn 0.000000 1.000000 0.000000
vn 0.000000 1.000000 0.000000
vn 0.000000 1.000000 0.000000
vn 0.000000 1.000000 0.000000
vn 0.000000 1.000000 0.000000
vn 0.000000 1.000000 0.000000
vn 0.000000 1.000000 0.000000
vn 0.000000 1.000000 0.000000
vn 0.000000 0.000000 -1.000000
vn 0.000000 0.000000 -1.000000
vn 0.000000 0.000000 -1.000000
vn 0.000000 0.000000 -1.000000
vn 0.000000 -1.000000 0.000000
vn 0.000000 -1.000000 0.000000
vn 0.000000 -1.000000 0.000000
vn 0.000000 -1.000000 0.000000
vn 0.000000 0.000000 -1.000000
vn 0.000000 0.000000 -1.000000
vn 0.000000 0.000000 -1.000000
vn 0.000000 0.000000 -1.000000
vn 0.000000 0.000000 1.000000
vn 0.000000 0.000000 1.000000
vn 0.000000 0.000000 1.000000
vn 0.000000 0.000000 1.000000
vn 0.000000 -1.000000 0.000000
vn 0.000000 -1.000000 0.000000
vn 0.000000 -1.000000 0.000000
vn 0.000000 -1.000000 0.000000
vn 0.000000 0.000000 1.000000
vn 0.000000 0.000000 1.000000
vn 0.000000 0.000000 1.000000
vn 0.000000 0.000000 1.000000
s off
g desk:pCylinder8
usemtl initialShadingGroup
f 1/1/1 8/2/2 9/3/3 2/4/4
f 3/5/5 7/6/6 8/2/7 1/1/8
f 2/7/9 4/8/10 3/5/11 1/1/12
f 5/9/13 10/10/14 11/11/15 6/12/16
f 2/4/17 9/3/18 28/13/19 29/14/20
f 12/15/21 4/16/22 30/17/23 31/18/24
f 4/8/25 2/7/26 29/19/27 30/20/28
f 8/2/29 7/6/30 13/21/31 16/22/32
f 9/3/33 8/2/34 16/22/35 17/23/36
f 28/13/37 9/3/38 17/23/39 27/24/40
f 11/11/41 10/10/42 22/25/43 23/26/44
f 15/27/45 18/28/46 17/23/47 16/22/48
f 14/29/49 15/27/50 16/22/51 13/21/52
f 18/30/53 15/27/54 14/29/55 19/31/56
f 21/32/57 24/33/58 23/26/59 22/25/60
f 18/28/61 26/34/62 27/24/63 17/23/64
f 20/35/65 32/36/66 25/37/67 19/38/68
f 19/31/69 25/39/70 26/40/71 18/30/72
f 25/39/73 24/41/74 21/42/75 26/40/76
f 27/24/77 26/34/78 21/32/79 22/25/80
f 10/10/81 28/13/82 27/24/83 22/25/84
f 29/14/85 28/13/86 10/10/87 5/9/88
f 30/20/89 29/19/90 5/43/91 6/44/92
f 31/18/93 30/17/94 6/12/95 11/11/96
f 32/36/97 31/18/98 11/11/99 23/26/100
f 25/37/101 32/36/102 23/26/103 24/33/104
f 31/47/105 32/48/106 63/98/107 48/97/108
f 33/51/109 36/54/110 35/53/111 34/52/112
f 37/55/113 33/51/114 34/52/115 38/56/116
f 36/57/117 33/51/118 37/55/119 39/58/120
f 40/59/121 43/62/122 42/61/123 41/60/124
f 36/54/125 45/64/126 44/63/127 35/53/128
f 46/65/129 48/68/130 47/67/131 39/66/132
f 39/58/133 47/70/134 45/69/135 36/57/136
f 34/52/137 50/72/138 49/71/139 38/56/140
f 35/53/141 51/73/142 50/72/143 34/52/144
f 44/63/145 52/74/146 51/73/147 35/53/148
f 42/61/149 54/76/150 53/75/151 41/60/152
f 55/77/153 50/72/154 51/73/155 56/78/156
f 57/79/157 49/71/158 50/72/159 55/77/160
f 56/80/161 58/81/162 57/79/163 55/77/164
f 59/82/165 53/75/166 54/76/167 60/83/168
f 56/78/169 51/73/170 52/74/171 61/84/172
f 62/85/173 58/88/174 64/87/175 63/86/176
f 58/81/177 56/80/178 61/90/179 64/89/180
f 64/89/181 61/90/182 59/92/183 60/91/184
f 52/74/185 53/75/186 59/82/187 61/84/188
f 41/60/189 53/75/190 52/74/191 44/63/192
f 45/64/193 40/59/194 41/60/195 44/63/196
f 47/70/197 43/94/198 40/93/199 45/69/200
f 48/68/201 42/61/202 43/62/203 47/67/204
f 63/86/205 54/76/206 42/61/207 48/68/208
f 64/87/209 60/83/210 54/76/211 63/86/212
f 13/21/213 49/71/214 57/79/215 14/29/216
f 7/6/217 38/56/218 49/71/219 13/21/220
f 3/5/221 37/55/222 38/56/223 7/6/224
f 4/8/225 39/58/226 37/55/227 3/5/228
f 12/45/229 46/95/230 39/58/231 4/8/232
f 31/46/233 48/96/234 46/95/235 12/45/236
f 20/49/237 62/99/238 63/100/239 32/50/240
f 19/31/241 58/81/242 62/99/243 20/49/244
f 14/29/245 57/79/246 58/81/247 19/31/248
