# This file uses centimeters as units for non-parametric coordinates.

mtllib circle_pill.mtl
g default
v 0.008090 0.006538 -0.005878
v 0.003090 0.006538 -0.009511
v -0.003090 0.006538 -0.009511
v -0.008090 0.006538 -0.005878
v -0.008090 0.006538 0.005878
v -0.003090 0.006538 0.009511
v 0.003090 0.006538 0.009511
v 0.008090 0.006538 0.005878
v 0.009606 0.006538 0.001213
v -0.009606 0.006538 0.001213
v -0.009606 0.006538 -0.001213
v 0.009606 0.006538 -0.001213
v -0.010000 0.005941 0.000000
v -0.009606 0.005941 0.001213
v 0.009606 0.005941 0.001213
v 0.010000 0.005941 0.000000
v 0.009606 0.005941 -0.001213
v -0.009606 0.005941 -0.001213
v -0.008090 0.005941 0.005878
v -0.003090 0.005941 0.009511
v 0.003090 0.005941 0.009511
v 0.008090 0.005941 0.005878
v -0.008090 0.005941 -0.005878
v -0.003090 0.005941 -0.009511
v 0.003090 0.005941 -0.009511
v 0.008090 0.005941 -0.005878
v -0.009606 -0.000000 0.001213
v -0.009606 0.000597 0.001213
v -0.008090 0.000597 0.005878
v -0.008090 -0.000000 0.005878
v -0.003090 0.000597 0.009511
v -0.003090 -0.000000 0.009511
v 0.003090 0.000597 0.009511
v 0.003090 -0.000000 0.009511
v 0.008090 0.000597 0.005878
v 0.008090 -0.000000 0.005878
v 0.009606 0.000597 0.001213
v 0.009606 -0.000000 0.001213
v -0.009606 -0.000000 -0.001213
v 0.009606 -0.000000 -0.001213
v 0.008090 -0.000000 -0.005878
v -0.008090 -0.000000 -0.005878
v 0.003090 -0.000000 -0.009511
v -0.003090 -0.000000 -0.009511
v -0.010000 0.000597 0.000000
v 0.010000 0.000597 0.000000
v 0.009606 0.000597 -0.001213
v -0.009606 0.000597 -0.001213
v -0.008090 0.000597 -0.005878
v -0.003090 0.000597 -0.009511
v 0.003090 0.000597 -0.009511
v 0.008090 0.000597 -0.005878
vt 0.688093 0.716152
vt 0.672680 0.716152
vt 0.672680 0.595673
vt 0.688093 0.595673
vt 0.534668 0.716152
vt 0.534668 0.595673
vt 0.672680 0.501858
vt 0.688093 0.501858
vt 0.672680 0.747469
vt 0.534668 0.747469
vt 0.519255 0.716152
vt 0.519255 0.595673
vt 0.534668 0.501858
vt 0.672680 0.778785
vt 0.534668 0.778785
vt 0.519255 0.501858
vt 0.672680 0.899265
vt 0.534668 0.899265
vt 0.672680 0.993079
vt 0.534668 0.993079
vt 0.519255 0.899265
vt 0.519255 0.778785
vt 0.688093 0.778785
vt 0.688093 0.899265
vt 0.519255 0.993079
vt 0.688093 0.993079
vt 0.323578 0.790591
vt 0.323578 0.630983
vt 0.338991 0.630983
vt 0.338991 0.790591
vt 0.185566 0.790591
vt 0.185566 0.630983
vt 0.323578 0.501858
vt 0.338991 0.501858
vt 0.170153 0.790591
vt 0.170153 0.630983
vt 0.185566 0.501858
vt 0.170153 0.501858
vt 0.498129 0.899265
vt 0.498129 0.778785
vt 0.513542 0.778785
vt 0.513542 0.899265
vt 0.360117 0.899265
vt 0.360117 0.778785
vt 0.344704 0.899265
vt 0.344704 0.778785
vt 0.360117 0.747469
vt 0.498129 0.747469
vt 0.360117 0.716152
vt 0.498129 0.716152
vt 0.360117 0.595673
vt 0.498129 0.595673
vt 0.344704 0.716152
vt 0.344704 0.595673
vt 0.360117 0.501858
vt 0.498129 0.501858
vt 0.513542 0.595673
vt 0.513542 0.716152
vt 0.344704 0.501858
vt 0.513542 0.501858
vt 0.354242 0.498142
vt 0.233763 0.458996
vt 0.233763 0.041138
vt 0.354242 0.001992
vt 0.139948 0.329871
vt 0.139948 0.170263
vt 0.714931 0.998008
vt 0.714931 0.501858
vt 0.835410 0.541004
vt 0.835410 0.958862
vt 0.929225 0.670130
vt 0.929225 0.829737
vt 0.033171 0.518492
vt 0.001855 0.508317
vt 0.001855 0.012167
vt 0.033171 0.001992
vt 0.064488 0.012167
vt 0.064488 0.508317
vt 0.693805 0.998008
vt 0.693805 0.501858
vt 0.709219 0.501858
vt 0.709219 0.998008
vt 0.376746 0.001992
vt 0.376746 0.498142
vt 0.361333 0.498142
vt 0.361333 0.001992
vt 0.164440 0.537622
vt 0.004833 0.537622
vt 0.004833 0.522209
vt 0.164440 0.522209
vt 0.164440 0.675634
vt 0.004833 0.675634
vt 0.164440 0.691047
vt 0.004833 0.691047
vt 0.383109 0.498142
vt 0.383109 0.001992
vt 0.503588 0.041138
vt 0.503588 0.458996
vt 0.597403 0.170263
vt 0.597403 0.329871
vt 0.818788 0.498142
vt 0.698308 0.458996
vt 0.698308 0.041138
vt 0.818788 0.001992
vt 0.604494 0.329871
vt 0.604494 0.170263
vt 0.102309 0.518493
vt 0.102309 0.001992
vt 0.133625 0.012167
vt 0.133625 0.508317
vt 0.070992 0.508317
vt 0.070992 0.012167
vt 0.841292 0.498142
vt 0.825878 0.498142
vt 0.825878 0.001992
vt 0.841292 0.001992
vt 0.847654 0.001992
vt 0.863067 0.001992
vt 0.863067 0.498142
vt 0.847654 0.498142
vn -0.951057 0.000000 0.309017
vn -0.951057 0.000000 0.309017
vn -0.951057 0.000000 0.309017
vn -0.951057 0.000000 0.309017
vn -0.587785 0.000000 0.809017
vn -0.587785 0.000000 0.809017
vn -0.587785 0.000000 0.809017
vn -0.587785 0.000000 0.809017
vn 0.000000 0.000000 1.000000
vn 0.000000 0.000000 1.000000
vn 0.000000 0.000000 1.000000
vn 0.000000 0.000000 1.000000
vn 0.587785 0.000000 0.809017
vn 0.587785 0.000000 0.809017
vn 0.587785 0.000000 0.809017
vn 0.587785 0.000000 0.809017
vn 0.951057 0.000000 0.309017
vn 0.951057 0.000000 0.309017
vn 0.951057 0.000000 0.309017
vn 0.951057 0.000000 0.309017
vn 0.000000 1.000000 0.000000
vn 0.000000 1.000000 0.000000
vn 0.000000 1.000000 0.000000
vn 0.000000 1.000000 0.000000
vn 0.000000 1.000000 0.000000
vn 0.000000 1.000000 0.000000
vn 0.000000 1.000000 0.000000
vn 0.000000 1.000000 0.000000
vn 0.000000 1.000000 0.000000
vn 0.000000 1.000000 0.000000
vn 0.000000 1.000000 0.000000
vn 0.000000 1.000000 0.000000
vn 0.000000 1.000000 0.000000
vn 0.000000 1.000000 0.000000
vn 0.000000 1.000000 0.000000
vn 0.000000 1.000000 0.000000
vn 0.000000 1.000000 0.000000
vn 0.000000 1.000000 0.000000
vn -0.000000 -0.000000 -1.000000
vn -0.000000 -0.000000 -1.000000
vn -0.000000 -0.000000 -1.000000
vn -0.000000 -0.000000 -1.000000
vn 0.000000 0.000000 1.000000
vn 0.000000 0.000000 1.000000
vn 0.000000 0.000000 1.000000
vn 0.000000 0.000000 1.000000
vn -0.951057 0.000000 -0.309017
vn -0.951057 0.000000 -0.309017
vn -0.951057 0.000000 -0.309017
vn -0.951057 0.000000 -0.309017
vn -0.587785 0.000000 -0.809017
vn -0.587785 0.000000 -0.809017
vn -0.587785 0.000000 -0.809017
vn -0.587785 0.000000 -0.809017
vn -0.000000 0.000000 -1.000000
vn -0.000000 0.000000 -1.000000
vn -0.000000 0.000000 -1.000000
vn -0.000000 0.000000 -1.000000
vn 0.587785 0.000000 -0.809017
vn 0.587785 0.000000 -0.809017
vn 0.587785 0.000000 -0.809017
vn 0.587785 0.000000 -0.809017
vn 0.951057 0.000000 -0.309017
vn 0.951057 0.000000 -0.309017
vn 0.951057 0.000000 -0.309017
vn 0.951057 0.000000 -0.309017
vn -0.951057 -0.000000 0.309017
vn -0.951057 -0.000000 0.309017
vn -0.951057 -0.000000 0.309017
vn -0.951057 -0.000000 0.309017
vn -0.587785 0.000000 0.809017
vn -0.587785 0.000000 0.809017
vn -0.587785 0.000000 0.809017
vn -0.587785 0.000000 0.809017
vn 0.000000 0.000000 1.000000
vn 0.000000 0.000000 1.000000
vn 0.000000 0.000000 1.000000
vn 0.000000 0.000000 1.000000
vn 0.587785 0.000000 0.809017
vn 0.587785 0.000000 0.809017
vn 0.587785 0.000000 0.809017
vn 0.587785 0.000000 0.809017
vn 0.951057 0.000000 0.309017
vn 0.951057 0.000000 0.309017
vn 0.951057 0.000000 0.309017
vn 0.951057 0.000000 0.309017
vn 0.000000 -1.000000 0.000000
vn 0.000000 -1.000000 0.000000
vn 0.000000 -1.000000 0.000000
vn 0.000000 -1.000000 0.000000
vn 0.000000 -1.000000 0.000000
vn 0.000000 -1.000000 0.000000
vn 0.000000 -1.000000 0.000000
vn 0.000000 -1.000000 0.000000
vn 0.000000 -1.000000 0.000000
vn 0.000000 -1.000000 0.000000
vn 0.000000 -1.000000 0.000000
vn 0.000000 -1.000000 0.000000
vn 0.000000 -1.000000 -0.000000
vn 0.000000 -1.000000 -0.000000
vn 0.000000 -1.000000 0.000000
vn 0.000000 -1.000000 0.000000
vn 0.000000 -1.000000 -0.000000
vn 0.000000 -1.000000 -0.000000
vn -0.000000 0.000000 -1.000000
vn -0.000000 0.000000 -1.000000
vn -0.000000 0.000000 -1.000000
vn -0.000000 0.000000 -1.000000
vn 0.000000 0.000000 1.000000
vn 0.000000 0.000000 1.000000
vn 0.000000 0.000000 1.000000
vn 0.000000 0.000000 1.000000
vn -0.951057 0.000000 -0.309017
vn -0.951057 0.000000 -0.309017
vn -0.951057 0.000000 -0.309017
vn -0.951057 0.000000 -0.309017
vn -0.587785 0.000000 -0.809017
vn -0.587785 0.000000 -0.809017
vn -0.587785 0.000000 -0.809017
vn -0.587785 0.000000 -0.809017
vn -0.000000 0.000000 -1.000000
vn -0.000000 0.000000 -1.000000
vn -0.000000 0.000000 -1.000000
vn -0.000000 0.000000 -1.000000
vn 0.587785 0.000000 -0.809017
vn 0.587785 0.000000 -0.809017
vn 0.587785 0.000000 -0.809017
vn 0.587785 0.000000 -0.809017
vn 0.951057 0.000000 -0.309017
vn 0.951057 0.000000 -0.309017
vn 0.951057 0.000000 -0.309017
vn 0.951057 0.000000 -0.309017
vn -1.000000 -0.000000 0.000000
vn -1.000000 -0.000000 0.000000
vn -0.951057 0.000000 0.309017
vn -0.951057 0.000000 0.309017
vn -0.951057 -0.000000 -0.309017
vn -0.951056 -0.000000 -0.309017
vn 1.000000 0.000000 0.000000
vn 1.000000 0.000000 0.000000
vn 0.951057 0.000000 -0.309017
vn 0.951057 0.000000 -0.309017
vn 0.951057 0.000000 0.309017
vn 0.951057 0.000000 0.309017
s 1
g circle_pill
usemtl initialShadingGroup
f 10/1/1 14/2/2 19/3/3 5/4/4
s 2
f 19/3/5 20/7/6 6/8/7 5/4/8
s 3
f 20/27/9 21/28/10 7/29/11 6/30/12
s 4
f 21/28/13 22/33/14 8/34/15 7/29/16
s 5
f 22/39/17 15/40/18 9/41/19 8/42/20
s 6
f 10/61/21 5/62/22 8/63/23 9/64/24
s 7
f 11/67/25 12/68/26 1/69/27 4/70/28
f 4/70/28 1/69/27 2/71/29 3/72/30
s 6
f 8/63/23 5/62/22 6/65/31 7/66/32
s 8
f 13/73/33 14/74/34 15/75/35 16/76/36
f 13/73/33 16/76/36 17/77/37 18/78/38
s off
f 10/79/39 9/80/40 15/81/41 14/82/42
f 12/83/43 11/84/44 18/85/45 17/86/46
s 9
f 23/17/47 18/14/48 11/23/49 4/24/50
s 10
f 24/19/51 23/17/52 4/24/53 3/26/54
s 11
f 25/87/55 24/88/56 3/89/57 2/90/58
s 12
f 26/52/59 25/56/60 2/60/61 1/57/62
s 13
f 17/50/63 26/52/64 1/57/65 12/58/66
s 1
f 27/11/67 30/12/68 29/6/69 28/5/70
s 2
f 29/6/71 30/12/72 32/16/73 31/13/74
s 3
f 31/31/75 32/35/76 34/36/77 33/32/78
s 4
f 33/32/79 34/36/80 36/38/81 35/37/82
s 5
f 35/43/83 36/45/84 38/46/85 37/44/86
s 14
f 27/95/87 38/96/88 36/97/89 30/98/90
s 15
f 39/101/91 42/102/92 41/103/93 40/104/94
f 42/102/92 44/105/95 43/106/96 41/103/93
s 14
f 36/97/89 34/99/97 32/100/98 30/98/90
s 16
f 45/107/99 46/108/100 37/109/101 28/110/102
f 45/107/99 48/111/103 47/112/104 46/108/100
s off
f 27/113/105 28/114/106 37/115/107 38/116/108
f 40/117/109 47/118/110 48/119/111 39/120/112
s 9
f 49/18/113 42/21/114 39/22/115 48/15/116
s 10
f 50/20/117 44/25/118 42/21/119 49/18/120
s 11
f 51/91/121 43/93/122 44/94/123 50/92/124
s 12
f 52/51/125 41/54/126 43/59/127 51/55/128
s 13
f 47/49/129 40/53/130 41/54/131 52/51/132
s 1
f 14/2/2 28/5/70 29/6/69 19/3/3
s 17
f 13/9/133 45/10/134 28/5/135 14/2/136
f 18/14/137 48/15/138 45/10/134 13/9/133
s 9
f 23/17/47 49/18/113 48/15/116 18/14/48
s 10
f 24/19/51 50/20/117 49/18/120 23/17/52
s 11
f 25/87/55 51/91/121 50/92/124 24/88/56
s 12
f 26/52/59 52/51/125 51/55/128 25/56/60
s 13
f 17/50/63 47/49/129 52/51/132 26/52/64
s 18
f 16/48/139 46/47/140 47/49/141 17/50/142
f 15/40/143 37/44/144 46/47/140 16/48/139
s 5
f 22/39/17 35/43/83 37/44/86 15/40/18
s 4
f 21/28/13 33/32/79 35/37/82 22/33/14
s 3
f 20/27/9 31/31/75 33/32/78 21/28/10
s 2
f 19/3/5 29/6/71 31/13/74 20/7/6
