# This file uses centimeters as units for non-parametric coordinates.

mtllib diamond_pill.mtl
g default
v -0.010601 0.003222 0.014663
v -0.001995 0.003222 0.010977
v 0.006611 0.003222 0.007291
v -0.010601 0.006443 0.014663
v 0.006611 0.006443 0.007291
v -0.006611 0.006443 -0.007291
v 0.010601 0.006443 -0.014663
v -0.006611 0.003222 -0.007291
v 0.001995 0.003222 -0.010977
v 0.010601 0.003222 -0.014663
v -0.000752 0.003222 0.010445
v 0.003239 0.003222 -0.011510
v 0.003239 0.006443 -0.011510
v -0.000752 0.006443 0.010445
v -0.003239 0.006443 0.011510
v 0.000752 0.006443 -0.010445
v 0.000752 0.003222 -0.010445
v -0.003239 0.003222 0.011510
v -0.001995 0.006009 0.010977
v -0.000752 0.006009 0.010445
v 0.003239 0.006009 -0.011510
v 0.001995 0.006009 -0.010977
v -0.003239 0.006009 0.011510
v 0.000752 0.006009 -0.010445
v 0.006611 0.006009 0.007291
v 0.010601 0.006009 -0.014663
v -0.010601 0.006009 0.014663
v -0.006611 0.006009 -0.007291
v -0.003239 0.000434 0.011510
v -0.010601 0.000434 0.014663
v -0.000752 0.000000 0.010445
v -0.000752 0.000434 0.010445
v 0.006611 0.000434 0.007291
v 0.006611 0.000000 0.007291
v -0.010601 0.000000 0.014663
v -0.003239 0.000000 0.011510
v 0.000752 0.000000 -0.010445
v -0.006611 0.000000 -0.007291
v 0.010601 0.000000 -0.014663
v 0.003239 0.000000 -0.011510
v -0.006611 0.000434 -0.007291
v 0.000752 0.000434 -0.010445
v 0.010601 0.000434 -0.014663
v 0.003239 0.000434 -0.011510
v -0.001995 0.000434 0.010977
v 0.001995 0.000434 -0.010977
vt 0.340412 0.842039
vt 0.340412 0.696578
vt 0.395486 0.696578
vt 0.395486 0.842039
vt 0.285337 0.842039
vt 0.285337 0.696578
vt 0.395486 0.672008
vt 0.340412 0.672008
vt 0.404061 0.696578
vt 0.404061 0.842039
vt 0.276762 0.842039
vt 0.276762 0.696578
vt 0.285337 0.672008
vt 0.395486 0.647439
vt 0.340412 0.647439
vt 0.285337 0.647439
vt 0.340412 0.501977
vt 0.395486 0.501977
vt 0.285337 0.501977
vt 0.404061 0.647439
vt 0.404061 0.501977
vt 0.276762 0.647439
vt 0.276762 0.501977
vt 0.001992 0.001910
vt 0.147454 0.064216
vt 0.226297 0.497985
vt 0.080835 0.435680
vt 0.466038 0.001910
vt 0.611499 0.064215
vt 0.690342 0.497985
vt 0.544881 0.435680
vt 0.151903 0.842039
vt 0.151903 0.696578
vt 0.206977 0.696578
vt 0.206977 0.842039
vt 0.143328 0.842039
vt 0.143328 0.696578
vt 0.151903 0.672008
vt 0.206977 0.672008
vt 0.262051 0.842039
vt 0.262051 0.696578
vt 0.151903 0.647438
vt 0.206977 0.647438
vt 0.262051 0.672008
vt 0.270627 0.842039
vt 0.270627 0.696578
vt 0.151903 0.501977
vt 0.206977 0.501977
vt 0.262051 0.647438
vt 0.143328 0.647438
vt 0.143328 0.501977
vt 0.262051 0.501977
vt 0.270627 0.647438
vt 0.270627 0.501977
vt 0.691776 0.935747
vt 0.691776 0.501977
vt 0.700351 0.501977
vt 0.700351 0.935747
vt 0.636702 0.935747
vt 0.636702 0.501977
vt 0.581628 0.935747
vt 0.581628 0.501977
vt 0.573052 0.935747
vt 0.573052 0.501977
vt 0.503268 0.935747
vt 0.503268 0.501977
vt 0.558342 0.501977
vt 0.558342 0.935747
vt 0.448193 0.935747
vt 0.448193 0.501977
vt 0.566917 0.501977
vt 0.566917 0.935747
vt 0.439618 0.935747
vt 0.439618 0.501977
vt 0.894595 0.512501
vt 0.919165 0.523025
vt 0.998008 0.956795
vt 0.973438 0.946271
vt 0.870026 0.501977
vt 0.948869 0.935747
vt 0.433483 0.501977
vt 0.433483 0.935747
vt 0.424907 0.935747
vt 0.424907 0.501977
vt 0.729773 0.501977
vt 0.729773 0.935747
vt 0.721197 0.935747
vt 0.721197 0.501977
vt 0.234112 0.497985
vt 0.312955 0.064216
vt 0.458417 0.001910
vt 0.379574 0.435680
vt 0.697963 0.497985
vt 0.776806 0.064215
vt 0.922268 0.001910
vt 0.843425 0.435680
vt 0.760478 0.946271
vt 0.839321 0.512501
vt 0.863890 0.501977
vt 0.785047 0.935747
vt 0.735908 0.956795
vt 0.814751 0.523025
vt 0.410197 0.501977
vt 0.418772 0.501977
vt 0.418772 0.935747
vt 0.410197 0.935747
vt 0.706487 0.501977
vt 0.715062 0.501977
vt 0.715062 0.935747
vt 0.706487 0.935747
vn 0.393732 0.000000 0.919225
vn 0.393732 0.000000 0.919225
vn 0.393732 0.000000 0.919225
vn 0.393732 0.000000 0.919225
vn 0.393733 0.000000 0.919225
vn 0.393732 0.000000 0.919225
vn 0.393732 0.000000 0.919225
vn 0.393733 0.000000 0.919225
vn 0.000000 1.000000 0.000000
vn 0.000000 1.000000 0.000000
vn 0.000000 1.000000 0.000000
vn 0.000000 1.000000 0.000000
vn 0.000000 1.000000 0.000000
vn 0.000000 1.000000 0.000000
vn 0.000000 1.000000 0.000000
vn 0.000000 1.000000 0.000000
vn -0.393733 0.000000 -0.919225
vn -0.393733 0.000000 -0.919225
vn -0.393732 0.000000 -0.919225
vn -0.393732 0.000000 -0.919225
vn -0.393733 0.000000 -0.919225
vn -0.393733 0.000000 -0.919225
vn -0.393733 0.000000 -0.919225
vn -0.393733 0.000000 -0.919225
vn 0.983880 0.000000 0.178833
vn 0.983880 0.000000 0.178833
vn 0.983880 0.000000 0.178833
vn 0.983880 0.000000 0.178833
vn -0.983879 0.000000 -0.178833
vn -0.983879 0.000000 -0.178833
vn -0.983879 0.000000 -0.178833
vn -0.983879 0.000000 -0.178833
vn 0.000000 1.000000 -0.000000
vn 0.000000 1.000000 -0.000000
vn 0.000000 1.000000 -0.000000
vn 0.000000 1.000000 -0.000000
vn 0.000000 1.000000 -0.000000
vn 0.000000 1.000000 -0.000000
vn -0.983879 0.000000 -0.178833
vn -0.983879 0.000000 -0.178833
vn -0.983879 0.000000 -0.178833
vn -0.983879 0.000000 -0.178833
vn 0.983879 0.000000 0.178833
vn 0.983879 0.000000 0.178833
vn 0.983879 0.000000 0.178833
vn 0.983879 0.000000 0.178833
vn 0.393732 0.000000 0.919225
vn 0.393732 0.000000 0.919225
vn 0.983880 0.000000 0.178833
vn 0.983880 0.000000 0.178833
vn -0.393733 0.000000 -0.919225
vn -0.393733 0.000000 -0.919225
vn 0.393733 0.000000 0.919225
vn 0.393733 0.000000 0.919225
vn -0.983880 0.000000 -0.178833
vn -0.983880 0.000000 -0.178833
vn -0.393733 0.000000 -0.919225
vn -0.393733 0.000000 -0.919225
vn 0.393732 0.000000 0.919225
vn 0.393732 0.000000 0.919225
vn 0.393732 0.000000 0.919225
vn 0.393732 0.000000 0.919225
vn -0.393732 0.000000 -0.919225
vn -0.393732 0.000000 -0.919225
vn -0.393732 0.000000 -0.919225
vn -0.393732 0.000000 -0.919225
vn 0.393733 0.000000 0.919225
vn 0.393733 0.000000 0.919225
vn 0.393733 0.000000 0.919225
vn 0.393733 0.000000 0.919225
vn -0.393733 0.000000 -0.919225
vn -0.393733 0.000000 -0.919225
vn -0.393733 0.000000 -0.919225
vn -0.393733 0.000000 -0.919225
vn 0.393733 0.000000 0.919225
vn 0.393732 0.000000 0.919225
vn 0.393732 0.000000 0.919225
vn 0.393733 0.000000 0.919225
vn 0.393733 0.000000 0.919225
vn 0.393733 0.000000 0.919225
vn 0.393733 0.000000 0.919225
vn 0.393733 0.000000 0.919225
vn 0.000000 -1.000000 0.000000
vn 0.000000 -1.000000 0.000000
vn 0.000000 -1.000000 0.000000
vn 0.000000 -1.000000 0.000000
vn 0.000000 -1.000000 0.000000
vn 0.000000 -1.000000 0.000000
vn 0.000000 -1.000000 0.000000
vn 0.000000 -1.000000 0.000000
vn -0.393733 0.000000 -0.919225
vn -0.393733 0.000000 -0.919225
vn -0.393733 0.000000 -0.919225
vn -0.393733 0.000000 -0.919225
vn -0.393733 0.000000 -0.919225
vn -0.393733 0.000000 -0.919225
vn -0.393733 0.000000 -0.919225
vn -0.393733 0.000000 -0.919225
vn 0.983880 0.000000 0.178833
vn 0.983880 0.000000 0.178833
vn 0.983880 0.000000 0.178833
vn 0.983880 0.000000 0.178833
vn -0.983879 0.000000 -0.178833
vn -0.983879 0.000000 -0.178833
vn -0.983879 0.000000 -0.178833
vn -0.983879 0.000000 -0.178833
vn 0.000000 -1.000000 0.000000
vn 0.000000 -1.000000 -0.000000
vn 0.000000 -1.000000 -0.000000
vn 0.000000 -1.000000 -0.000000
vn 0.000000 -1.000000 0.000000
vn 0.000000 -1.000000 0.000000
vn -0.983879 0.000000 -0.178833
vn -0.983879 0.000000 -0.178833
vn -0.983879 0.000000 -0.178833
vn -0.983879 0.000000 -0.178833
vn 0.983879 0.000000 0.178833
vn 0.983879 0.000000 0.178833
vn 0.983879 0.000000 0.178833
vn 0.983879 0.000000 0.178833
vn 0.393733 0.000000 0.919225
vn 0.393733 0.000000 0.919225
vn 0.983880 0.000000 0.178833
vn 0.983880 0.000000 0.178833
vn -0.393733 0.000000 -0.919225
vn -0.393733 0.000000 -0.919225
vn 0.393732 0.000000 0.919225
vn 0.393732 0.000000 0.919225
vn -0.983879 0.000000 -0.178833
vn -0.983879 0.000000 -0.178833
vn -0.393733 0.000000 -0.919225
vn -0.393733 0.000000 -0.919225
vn 0.393733 0.000000 0.919225
vn 0.393733 0.000000 0.919225
vn 0.393733 0.000000 0.919225
vn 0.393733 0.000000 0.919225
vn -0.393732 0.000000 -0.919225
vn -0.393732 0.000000 -0.919225
vn -0.393732 0.000000 -0.919225
vn -0.393732 0.000000 -0.919225
vn 0.393733 0.000000 0.919225
vn 0.393733 0.000000 0.919225
vn 0.393733 0.000000 0.919225
vn 0.393733 0.000000 0.919225
vn -0.393733 0.000000 -0.919225
vn -0.393733 0.000000 -0.919225
vn -0.393733 0.000000 -0.919225
vn -0.393733 0.000000 -0.919225
s 1
g diamond_pill
usemtl initialShadingGroup
f 1/1/1 18/2/2 23/3/3 27/4/4
s 2
f 14/20/5 20/14/6 25/18/7 5/21/8
s off
f 4/24/9 15/25/10 16/26/11 6/27/12
f 14/28/13 5/29/14 7/30/15 13/31/16
s 3
f 28/32/17 24/33/18 17/34/19 8/35/20
s 4
f 13/50/21 7/51/22 26/47/23 21/42/24
s 5
f 25/55/25 26/56/26 7/57/27 5/58/28
s 6
f 8/65/29 1/66/30 27/67/31 28/68/32
s 7
f 19/75/33 20/76/34 21/77/35 22/78/36
f 23/79/37 19/75/33 22/78/36 24/80/38
s off
f 14/81/39 13/82/40 21/83/41 20/84/42
f 16/85/43 15/86/44 23/87/45 24/88/46
s 2
f 20/14/6 11/15/47 3/17/48 25/18/7
s 5
f 3/59/49 10/60/50 26/56/26 25/55/25
s 4
f 21/42/24 26/47/23 10/48/51 12/43/52
s 1
f 27/4/4 23/3/3 15/9/53 4/10/54
s 6
f 28/68/32 27/67/31 4/71/55 6/72/56
s 3
f 6/36/57 16/37/58 24/33/18 28/32/17
s off
f 20/14/59 19/7/60 2/8/61 11/15/62
f 22/38/63 21/42/64 12/43/65 9/39/66
f 19/7/67 23/3/68 18/2/69 2/8/70
f 24/33/71 22/38/72 9/39/73 17/34/74
s 8
f 1/1/75 30/5/76 29/6/77 18/2/78
s 9
f 31/22/79 34/23/80 33/19/81 32/16/82
s off
f 35/89/83 38/90/84 37/91/85 36/92/86
f 31/93/87 40/94/88 39/95/89 34/96/90
s 10
f 41/40/91 8/35/92 17/34/93 42/41/94
s 11
f 40/53/95 44/49/96 43/52/97 39/54/98
s 12
f 33/61/99 34/63/100 39/64/101 43/62/102
s 13
f 8/65/103 41/69/104 30/70/105 1/66/106
s 14
f 45/97/107 46/98/108 44/99/109 32/100/110
f 29/101/111 42/102/112 46/98/108 45/97/107
s off
f 31/103/113 32/104/114 44/105/115 40/106/116
f 37/107/117 42/108/118 29/109/119 36/110/120
s 9
f 32/16/82 33/19/81 3/17/121 11/15/122
s 12
f 3/59/123 33/61/99 43/62/102 10/60/124
s 11
f 44/49/96 12/43/125 10/48/126 43/52/97
s 8
f 30/5/76 35/11/127 36/12/128 29/6/77
s 13
f 41/69/104 38/73/129 35/74/130 30/70/105
s 10
f 38/45/131 41/40/91 42/41/94 37/46/132
s off
f 32/16/133 11/15/134 2/8/135 45/13/136
f 46/44/137 9/39/138 12/43/139 44/49/140
f 45/13/141 2/8/142 18/2/143 29/6/144
f 42/41/145 17/34/146 9/39/147 46/44/148
