# This file uses centimeters as units for non-parametric coordinates.

mtllib picture frame.mtl
g default
v -129.731791 134.462807 -412.724849
v -69.235175 134.462807 -412.724849
v -129.731791 174.454255 -412.724849
v -69.235175 174.454255 -412.724849
v -129.731791 174.454255 -414.618971
v -69.235175 174.454255 -414.618971
v -129.731791 134.462807 -414.618971
v -69.235175 134.462807 -414.618971
v -126.383388 137.164241 -411.319792
v -72.583578 137.164241 -411.319792
v -72.583578 171.752821 -411.319792
v -126.383388 171.752821 -411.319792
v -129.004192 173.717676 -412.013031
v -69.962775 173.717676 -412.013031
v -69.962775 135.199386 -412.013031
v -129.004192 135.199386 -412.013031
v -128.146155 173.010198 -411.620360
v -70.820811 173.010198 -411.620360
v -70.820811 135.906864 -411.620360
v -128.146155 135.906864 -411.620360
v -125.843414 137.511396 -411.319792
v -73.123552 137.511396 -411.319792
v -73.123552 171.405666 -411.319792
v -125.843414 171.405666 -411.319792
v -125.843414 137.511396 -413.314312
v -73.123552 137.511396 -413.314312
v -73.123552 171.405666 -413.314312
v -125.843414 171.405666 -413.314312
vt 0.188993 0.563055
vt 0.811007 0.563054
vt 0.811007 0.962955
vt 0.188993 0.962955
vt 0.143116 0.504170
vt 0.856884 0.504170
vt 0.856884 0.526518
vt 0.143116 0.526518
vt 0.151700 0.495772
vt 0.848300 0.495772
vt 0.211435 0.082693
vt 0.783090 0.082694
vt 0.783090 0.460588
vt 0.211435 0.460588
vt 0.143116 0.010568
vt 0.856884 0.010568
vt 0.856884 0.032916
vt 0.143116 0.032916
vt 0.848300 0.041314
vt 0.151700 0.041314
vt 0.856698 0.032624
vt 0.879045 0.032624
vt 0.879046 0.504462
vt 0.856698 0.504462
vt 0.188993 0.986488
vt 0.811007 0.986488
vt 0.120954 0.032624
vt 0.143301 0.032623
vt 0.143302 0.504462
vt 0.120954 0.504462
vt 0.834540 0.962955
vt 0.165460 0.563054
vt 0.811007 0.539522
vt 0.188993 0.539522
vt 0.161824 0.487424
vt 0.838176 0.487424
vt 0.165460 0.962955
vt 0.161824 0.049661
vt 0.182622 0.472589
vt 0.817378 0.472589
vt 0.834540 0.563054
vt 0.838176 0.049661
vt 0.182622 0.064496
vt 0.188993 0.468493
vt 0.811007 0.468493
vt 0.817378 0.064496
vt 0.188993 0.068592
vt 0.811007 0.068592
vn 0.000000 0.000000 1.000000
vn 0.000000 0.000000 1.000000
vn 0.000000 0.000000 1.000000
vn 0.000000 0.000000 1.000000
vn 0.000000 0.982376 0.186915
vn 0.000000 0.982376 0.186915
vn 0.000000 1.000000 0.000000
vn 0.000000 1.000000 0.000000
vn 0.000000 0.000000 -1.000000
vn 0.000000 0.000000 -1.000000
vn 0.000000 0.000000 -1.000000
vn 0.000000 0.000000 -1.000000
vn 0.000000 -1.000000 0.000000
vn 0.000000 -1.000000 0.000000
vn 0.000000 -0.982376 0.186915
vn 0.000000 -0.982376 0.186915
vn 0.983219 0.000000 0.182430
vn 1.000000 0.000000 0.000000
vn 1.000000 0.000000 0.000000
vn 0.983219 0.000000 0.182430
vn -1.000000 0.000000 0.000000
vn -0.983219 0.000000 0.182430
vn -0.983219 0.000000 0.182430
vn -1.000000 0.000000 0.000000
vn 0.000000 -0.654620 0.755958
vn 0.000000 -0.654620 0.755958
vn 0.629220 0.000000 0.777227
vn 0.629220 0.000000 0.777227
vn 0.000000 0.654620 0.755958
vn 0.000000 0.654620 0.755958
vn -0.629220 0.000000 0.777227
vn -0.629220 0.000000 0.777227
vn 0.000000 0.415602 0.909546
vn 0.000000 0.415602 0.909546
vn 0.310231 0.000000 0.950661
vn 0.310231 0.000000 0.950661
vn 0.000000 -0.415602 0.909546
vn 0.000000 -0.415602 0.909546
vn -0.310231 0.000000 0.950661
vn -0.310231 0.000000 0.950661
vn 0.000000 0.232493 0.972598
vn 0.000000 0.232493 0.972598
vn 0.168083 0.000000 0.985773
vn 0.168083 0.000000 0.985773
vn 0.000000 -0.232493 0.972598
vn 0.000000 -0.232493 0.972598
vn -0.168083 0.000000 0.985773
vn -0.168083 0.000000 0.985773
vn 0.000000 0.000000 1.000000
vn 0.000000 0.000000 1.000000
vn 0.000000 0.000000 1.000000
vn 0.000000 0.000000 1.000000
vn -0.000000 0.000000 1.000000
vn -0.000000 0.000000 1.000000
vn -0.000000 0.000000 1.000000
vn -0.000000 0.000000 1.000000
vn 0.000000 0.000000 1.000000
vn 0.000000 0.000000 1.000000
vn 0.000000 0.000000 1.000000
vn 0.000000 0.000000 1.000000
vn 0.000000 0.000000 1.000000
vn 0.000000 0.000000 1.000000
vn 0.000000 0.000000 1.000000
vn 0.000000 0.000000 1.000000
vn 0.000000 1.000000 0.000000
vn 0.000000 1.000000 0.000000
vn 0.000000 1.000000 0.000000
vn 0.000000 1.000000 0.000000
vn -1.000000 0.000000 0.000000
vn -1.000000 0.000000 0.000000
vn -1.000000 0.000000 0.000000
vn -1.000000 0.000000 0.000000
vn 0.000000 -1.000000 0.000000
vn 0.000000 -1.000000 0.000000
vn 0.000000 -1.000000 0.000000
vn 0.000000 -1.000000 0.000000
vn 1.000000 0.000000 0.000000
vn 1.000000 0.000000 0.000000
vn 1.000000 0.000000 0.000000
vn 1.000000 0.000000 0.000000
s off
g picture_frame:pCube1
usemtl initialShadingGroup
f 25/1/1 26/2/2 27/3/3 28/4/4
s 1
f 3/5/5 4/6/6 6/7/7 5/8/8
s off
f 5/11/9 6/12/10 8/13/11 7/14/12
s 2
f 7/15/13 8/16/14 2/17/15 1/18/16
s 3
f 2/21/17 8/22/18 6/23/19 4/24/20
s 4
f 7/27/21 1/28/22 3/29/23 5/30/24
s 2
f 1/18/16 2/17/15 15/19/25 16/20/26
s 3
f 2/21/17 4/24/20 14/10/27 15/19/28
s 1
f 4/6/6 3/5/5 13/9/29 14/10/30
s 4
f 3/29/23 1/28/22 16/20/31 13/9/32
s 1
f 14/10/30 13/9/29 17/35/33 18/36/34
s 3
f 15/19/28 14/10/27 18/36/35 19/42/36
s 2
f 16/20/26 15/19/25 19/42/37 20/38/38
s 4
f 13/9/32 16/20/31 20/38/39 17/35/40
s 1
f 18/36/34 17/35/33 12/39/41 11/40/42
s 3
f 19/42/36 18/36/35 11/40/43 10/46/44
s 2
f 20/38/38 19/42/37 10/46/45 9/43/46
s 4
f 17/35/40 20/38/39 9/43/47 12/39/48
s off
f 9/43/49 10/46/50 22/48/51 21/47/52
f 10/46/53 11/40/54 23/45/55 22/48/56
f 11/40/57 12/39/58 24/44/59 23/45/60
f 12/39/61 9/43/62 21/47/63 24/44/64
f 21/34/65 22/33/66 26/2/67 25/1/68
f 22/41/69 23/31/70 27/3/71 26/2/72
f 23/26/73 24/25/74 28/4/75 27/3/76
f 24/37/77 21/32/78 25/1/79 28/4/80
